<svg width="185" height="102" viewBox="0 0 185 102" fill="none" xmlns="http://www.w3.org/2000/svg">
<path d="M63.9611 -68.9369C55.0709 -69.9246 48.3503 -59.085 43.6484 -53.002C30.3798 -35.8361 18.4184 -17.229 9.13327 2.39868C7.51091 5.82818 -3.26443 24.3999 7.81212 23.0397C21.4908 21.3601 35.7791 8.62635 45.5475 -0.160821C61.8529 -14.8282 76.8057 -31.6429 90.0539 -49.1214C91.2975 -50.7623 101.864 -67.3858 91.7053 -62.7446C86.22 -60.2386 81.4898 -54.9045 77.5029 -50.6076C69.8262 -42.3339 62.803 -33.4026 56.5296 -24.0219C44.1527 -5.51451 31.9089 16.9874 29.3634 39.47C28.0778 50.8255 38.7705 48.1776 45.6714 43.6808C51.8206 39.6739 56.6304 33.5219 61.5665 28.2C69.7942 19.3293 78.0035 10.4578 85.8014 1.20149C97.3056 -12.4543 111.85 -28.466 117.509 -45.8602C121.716 -58.792 106.097 -43.0756 104.009 -40.6999C87.9516 -22.435 73.2128 -1.4799 62.5161 20.3977C56.5818 32.5348 51.6091 45.3806 48.4788 58.5424C48.0305 60.4277 45.187 69.7492 48.3137 71.4637C51.8783 73.4183 60.0693 67.3504 62.4748 65.8906C71.7161 60.2826 80.3627 53.829 88.1134 46.2816C98.3345 36.3287 107.269 25.0669 116.229 13.999C125.563 2.47014 135.105 -9.05792 142.652 -21.8752C144.173 -24.4587 148.279 -29.9726 148.019 -33.3517C147.775 -36.5302 141.971 -31.0076 139.514 -28.9758C118.7 -11.7615 98.5071 8.69187 85.0995 32.2869C79.5851 41.9914 75.2053 52.5388 72.6312 63.4137C71.2832 69.1082 68.9549 78.4297 72.7963 83.8071C79.2528 92.8452 98.1478 74.8967 101.779 71.0096C109.472 62.7743 115.507 52.9445 122.092 43.8459C129.838 33.1425 137.923 22.7303 146.038 12.3064C152.434 4.08978 159.255 -4.16696 163.791 -13.6188C165.576 -17.3396 168.151 -22.9251 167.341 -27.2419C165.735 -35.8099 146.451 -11.7076 145.542 -10.4814C127.78 13.4881 115.026 42.8962 107.353 71.6701C106.585 74.5484 98.474 102.99 109.087 99.742C114.718 98.0182 119.656 91.11 123.289 87.0271C131.099 78.2489 138.272 68.9556 145.336 59.5744C158.776 41.7243 172.376 23.4824 182.7 3.59586C185.707 -2.19631 188.213 -8.17461 190.503 -14.2793C190.617 -14.585 193.413 -20.3435 190.668 -18.325C186.017 -14.9054 182.208 -9.8046 178.654 -5.36237C170.541 4.77731 162.744 15.2938 155.781 26.2598C145.994 41.6725 135.634 61.1779 135.634 79.9678C135.634 92.1376 144.848 94.0444 154.419 88.8848C168.273 81.416 179.47 68.5925 191.783 58.8726" stroke="url(#paint0_linear_1_981)" stroke-width="4" stroke-linecap="round"/>
<defs>
<linearGradient id="paint0_linear_1_981" x1="2.87106" y1="100" x2="191.871" y2="100" gradientUnits="userSpaceOnUse">
<stop stop-color="#00EA3B"/>
<stop offset="1" stop-color="#00D096"/>
</linearGradient>
</defs>
</svg>
